<?xml version="1.0" standalone="no"?>
<!DOCTYPE svg PUBLIC "-//W3C//DTD SVG 20010904//EN"
 "http://www.w3.org/TR/2001/REC-SVG-20010904/DTD/svg10.dtd">
<svg version="1.0" xmlns="http://www.w3.org/2000/svg"
 width="600.000000pt" height="450.000000pt" viewBox="0 0 600.000000 450.000000"
 preserveAspectRatio="xMidYMid meet">

<g transform="translate(0.000000,450.000000) scale(0.100000,-0.100000)"
fill="#000000" stroke="none">
<path d="M3098 2985 c-66 -18 -127 -56 -177 -110 -41 -44 -91 -134 -91 -164 0
-11 -3 -11 -18 2 -23 21 -122 67 -145 67 -17 0 -28 -18 -40 -71 -6 -25 -4 -27
35 -32 75 -10 119 -58 143 -157 9 -36 19 -74 22 -84 5 -17 1 -19 -46 -13 -64
8 -128 36 -164 72 -49 50 -67 151 -41 242 5 18 -1 25 -35 43 l-42 21 -14 -35
c-38 -90 -28 -206 26 -290 l29 -46 -39 0 c-51 0 -103 23 -149 65 l-39 34 -37
-25 c-35 -24 -36 -27 -23 -47 25 -38 110 -97 165 -113 42 -13 79 -14 185 -9
162 9 224 -6 294 -70 l45 -40 -26 -55 c-36 -78 -49 -151 -44 -250 4 -69 11
-99 38 -157 l33 -73 -41 -52 c-22 -29 -59 -71 -81 -93 -23 -21 -41 -42 -41
-45 0 -3 31 -4 70 -2 l70 4 50 63 c116 146 164 260 164 390 0 79 -24 188 -44
200 -6 4 -20 -15 -32 -42 -18 -38 -22 -63 -20 -121 3 -92 -24 -204 -44 -178
-6 9 -17 45 -24 80 -29 157 67 356 203 417 48 22 64 24 227 24 158 0 180 2
222 22 50 23 138 98 138 117 0 7 -17 22 -38 34 l-39 21 -28 -29 c-39 -41 -103
-70 -154 -70 l-42 0 26 35 c60 78 73 240 26 314 -14 22 -88 -10 -82 -36 2 -10
4 -52 5 -93 1 -103 -26 -154 -104 -192 -30 -16 -77 -31 -104 -35 l-49 -6 7 44
c11 68 24 111 45 146 22 36 86 73 126 73 29 0 32 15 10 66 -14 33 -17 35 -47
29 -39 -9 -100 -39 -121 -60 -14 -13 -19 -8 -46 51 l-31 65 -31 -18 c-50 -29
-51 -35 -22 -99 52 -112 33 -288 -41 -379 -24 -30 -25 -30 -41 -10 -156 197
-78 497 148 569 13 4 17 17 17 56 0 27 -1 50 -2 49 -2 0 -24 -7 -50 -14z"/>
<path d="M2805 2952 c-60 -38 -94 -97 -75 -133 31 -57 122 21 131 111 5 42
-12 49 -56 22z"/>
<path d="M3221 2925 c-46 -53 -56 -126 -19 -149 38 -23 87 69 73 140 -8 47
-19 49 -54 9z"/>
<path d="M2981 2662 c-32 -63 -37 -126 -14 -187 11 -29 25 -50 33 -50 45 0 61
155 24 235 l-21 45 -22 -43z"/>
<path d="M2346 2683 c-12 -12 -6 -94 9 -123 16 -31 51 -60 72 -60 21 0 16 88
-7 125 -22 35 -64 68 -74 58z"/>
<path d="M3621 2664 c-37 -33 -59 -91 -53 -134 6 -39 20 -38 60 3 34 35 50 96
34 136 l-8 24 -33 -29z"/>
<path d="M2630 2596 c0 -40 28 -78 74 -100 45 -21 56 -20 56 4 0 40 -40 101
-75 116 -49 20 -55 18 -55 -20z"/>
<path d="M3312 2610 c-30 -19 -71 -86 -72 -117 0 -19 27 -16 70 8 42 24 70 65
70 103 0 32 -22 34 -68 6z"/>
<path d="M2244 2354 c-25 -132 39 -273 154 -341 23 -14 42 -27 42 -29 0 -2
-14 -23 -31 -47 l-30 -42 45 -14 45 -14 50 50 c71 72 128 98 219 98 77 0 74
-2 87 61 5 29 4 31 -35 43 -56 17 -115 76 -130 130 l-11 43 -45 -5 c-25 -2
-48 -7 -51 -10 -10 -11 17 -101 42 -139 14 -20 21 -39 16 -42 -18 -11 -92 -18
-126 -12 -75 14 -144 107 -145 196 -1 41 -5 48 -45 77 l-44 32 -7 -35z"/>
<path d="M3740 2383 c0 -5 -15 -18 -34 -31 -29 -20 -34 -29 -39 -78 -14 -140
-134 -225 -256 -183 l-32 11 20 22 c26 28 51 88 51 125 0 21 -6 30 -22 35 -51
13 -64 8 -77 -34 -6 -21 -23 -53 -38 -70 -27 -33 -91 -70 -119 -70 -14 0 -16
-7 -10 -37 3 -21 6 -42 6 -48 0 -6 31 -10 73 -10 94 -1 162 -30 222 -97 40
-45 47 -49 78 -43 62 12 65 19 29 68 l-32 45 54 31 c81 45 128 116 147 218 11
58 4 153 -12 153 -5 0 -9 -3 -9 -7z"/>
<path d="M2405 2253 c15 -85 62 -142 105 -128 47 15 9 110 -59 145 -22 11 -43
20 -47 20 -3 0 -3 -17 1 -37z"/>
<path d="M2707 2284 c-12 -12 34 -85 66 -104 38 -24 60 -25 77 -5 19 23 4 61
-32 83 -35 21 -100 36 -111 26z"/>
<path d="M3225 2275 c-36 -13 -85 -55 -85 -74 0 -4 6 -15 13 -25 21 -29 70
-12 112 37 59 69 44 92 -40 62z"/>
<path d="M3565 2274 c-44 -23 -66 -45 -82 -82 -16 -38 -4 -72 26 -72 42 0 101
101 89 154 -3 14 -6 14 -33 0z"/>
<path d="M2200 2061 c0 -50 69 -131 112 -131 55 0 49 66 -10 104 -42 27 -102
43 -102 27z"/>
<path d="M3747 2056 c-46 -17 -64 -32 -83 -67 -18 -36 -9 -59 26 -59 46 0 93
48 114 118 9 26 -2 27 -57 8z"/>
<path d="M2682 1947 c-41 -15 -102 -64 -102 -81 0 -30 114 -34 170 -6 49 25
61 57 30 82 -25 20 -51 22 -98 5z"/>
<path d="M3226 1947 c-25 -18 -17 -55 16 -80 32 -24 120 -34 162 -18 l29 12
-29 31 c-53 56 -139 83 -178 55z"/>
<path d="M3066 1595 l-27 -35 23 -29 c21 -26 30 -29 91 -32 38 -2 70 -3 71 -2
3 4 -119 133 -126 133 -3 0 -18 -16 -32 -35z"/>
</g>
</svg>
